<svg id="_x32_9" enable-background="new 0 0 64 64" height="512" viewBox="0 0 64 64" width="512" xmlns="http://www.w3.org/2000/svg"><g><path d="m59 13h-6v-8c0-2.206-1.794-4-4-4h-34c-2.206 0-4 1.794-4 4v8h-6c-2.206 0-4 1.794-4 4v30c0 2.206 1.794 4 4 4h20v2.523c-3.329.532-8 1.761-8 4.477 0 3.436 7.775 5 15 5s15-1.564 15-5c0-2.716-4.671-3.945-8-4.477v-2.523h20c2.206 0 4-1.794 4-4v-30c0-2.206-1.794-4-4-4zm-14 14v-1c0-1.654-1.346-3-3-3h-5v-4.512c0-1.335-.859-2.49-2.138-2.874l-8.332-2.5c-.256-.075-.52-.114-.79-.114-1.511 0-2.74 1.229-2.74 2.74v8.642l-2.342 1.171c-1.023.511-1.658 1.54-1.658 2.683v6.764h20v2h-24c-1.103 0-2-.897-2-2v-24h38v16zm12.086 13.5-4.586 4.586-9.5-9.5-2 2v-8.586h8.586l-2 2zm-22.086-13.5v6h-2v-7c0-.551.449-1 1-1h8c.551 0 1 .449 1 1v1h-4v6h-2v-6zm-8.618-4c-.404 0-.809.096-1.171.276l-.211.106v-4.101l10 2.5v1.219h-1c-1.654 0-3 1.346-3 3v7h-2v-7.382c0-1.444-1.174-2.618-2.618-2.618zm8.618-3.281-10-2.5v-1.479c0-.479.493-.849.958-.709l8.33 2.499c.425.128.712.513.712.958zm-8.895 5.346c.391-.197.895.118.895.553v.764l-6 3v-1.146c0-.381.212-.724.553-.894zm-5.105 6.553 6-3v4.382h-6zm24.586 9.382h-5.172l2.586-2.586zm-30.586-38h34c1.103 0 2 .897 2 2v4h-38v-4c0-1.103.897-2 2-2zm-10 12h6v20c0 2.206 1.794 4 4 4h24v2h-36v-24c0-1.103.897-2 2-2zm40 43c0 .897-4.423 3-13 3s-13-2.103-13-3c0-.409 1.458-1.678 6-2.45v3.45h14v-3.45c4.542.772 6 2.041 6 2.45zm-8-1h-10v-6h10zm24-10c0 1.103-.897 2-2 2h-54c-1.103 0-2-.897-2-2v-4h44.586l4.914 4.914 7.414-7.414-9.5-9.5 4-4h-1.414v-12h6c1.103 0 2 .897 2 2z"/><path d="m15 5h2v2h-2z"/><path d="m19 5h2v2h-2z"/><path d="m23 5h2v2h-2z"/><path d="m30 45h4v2h-4z"/><path d="m36 45h2v2h-2z"/><path d="m26 45h2v2h-2z"/></g></svg>