<svg xmlns="http://www.w3.org/2000/svg" width="552" height="17" viewBox="0 0 552 17" fill="none"><rect y="0.406845" width="184.986" height="16.1863" fill="#65A1B8"></rect><rect y="0.406845" width="184.986" height="16.1863" fill="#65A1B8"></rect><rect y="0.406845" width="184.986" height="16.1863" fill="#65A1B8"></rect><rect y="0.406845" width="184.986" height="16.1863" fill="#65A1B8"></rect><rect x="183.565" y="0.406845" width="184.986" height="16.1863" fill="#65A1B8"></rect><rect x="183.565" y="0.406845" width="184.986" height="16.1863" fill="#65A1B8"></rect><rect x="183.565" y="0.406845" width="184.986" height="16.1863" fill="#65A1B8"></rect><rect x="183.565" y="0.406845" width="184.986" height="16.1863" fill="#73C047"></rect><rect x="183.565" y="0.406845" width="184.986" height="16.1863" fill="#73C047"></rect><rect x="183.565" y="0.406845" width="184.986" height="16.1863" fill="#73C047"></rect><rect x="183.565" y="0.406845" width="184.986" height="16.1863" fill="#73C047"></rect><rect x="367.014" y="0.406845" width="184.986" height="16.1863" fill="#65A1B8"></rect><rect x="367.014" y="0.406845" width="184.986" height="16.1863" fill="#65A1B8"></rect><rect x="367.014" y="0.406845" width="184.986" height="16.1863" fill="#65A1B8"></rect><rect x="367.014" y="0.406845" width="184.986" height="16.1863" fill="#73C047"></rect><rect x="367.014" y="0.406845" width="184.986" height="16.1863" fill="#73C047"></rect><rect x="367.014" y="0.406845" width="184.986" height="16.1863" fill="#73C047"></rect><rect x="367.014" y="0.406845" width="184.986" height="16.1863" fill="#E76F51"></rect></svg>