<svg id="outline" height="512" viewBox="0 0 64 64" width="512" xmlns="http://www.w3.org/2000/svg"><path d="m22.486 47.864a22.862 22.862 0 0 1 -12.062-5.07 29.005 29.005 0 0 1 13.684-34.209 29.054 29.054 0 0 1 3.031 2.215 15.99 15.99 0 0 0 -5.53 6.959c-3.2 7.272-2.6 17.253 1.552 25.428a1 1 0 0 0 .893.548 1 1 0 0 0 .89-1.452c-3.886-7.664-4.477-16.972-1.5-23.717a13.752 13.752 0 0 1 5.243-6.376 28.93 28.93 0 0 1 8.056 14.185 1 1 0 0 0 1.948-.457 30.905 30.905 0 0 0 -8.113-14.649 12.247 12.247 0 0 1 9.711.95c3.851 1.917 6.1 5.736 7.326 8.677.055.306.128.606.171.917a1 1 0 0 0 1.981-.276 25 25 0 1 0 -27.496 28.316 1 1 0 1 0 .215-1.989zm21.846-35.279a14.3 14.3 0 0 0 -3.157-2.159 14.178 14.178 0 0 0 -11.308-1.032c-.3.108-.589.245-.879.376a30.876 30.876 0 0 0 -2.816-2.211 28.953 28.953 0 0 1 10.261-2.476 23.25 23.25 0 0 1 7.899 7.502zm-11.345-9.134a30.8 30.8 0 0 0 -8.807 2.839 30.8 30.8 0 0 0 -2.88-1.49 5.785 5.785 0 0 0 1.228-2.664 23.125 23.125 0 0 1 2.472-.136 22.775 22.775 0 0 1 7.987 1.451zm-18.647 1.178a28.978 28.978 0 0 1 3.023.8 23.79 23.79 0 0 1 -7.441 2.225 23.1 23.1 0 0 1 4.418-3.025zm2.986-1.307a22.643 22.643 0 0 1 3.021-.848 4.536 4.536 0 0 1 -1.024 1.511q-.982-.366-1.997-.663zm-9.695 6.626c3.9-.37 8.9-1.321 12.07-3.67.825.345 1.632.723 2.416 1.14a30.881 30.881 0 0 0 -14.417 32.748 22.984 22.984 0 0 1 -.069-30.218z"/><path d="m62.7 25.692a1 1 0 0 0 -.584-.583 28.978 28.978 0 0 0 -29.366 7.637 28.979 28.979 0 0 0 -7.639 29.368 1 1 0 0 0 .584.583 26.723 26.723 0 0 0 8.449 1.265 28.968 28.968 0 0 0 20.917-8.9 28.979 28.979 0 0 0 7.639-29.37zm-9.056 27.952c-11.425 11.424-24.239 8.146-26.806 7.331a26.672 26.672 0 0 1 -.744-11.129 49.266 49.266 0 0 0 5.443 6.422 50.947 50.947 0 0 0 4.532 4.032 1 1 0 1 0 1.236-1.572 49.34 49.34 0 0 1 -4.354-3.877 44.747 44.747 0 0 1 -6.3-7.8 27.716 27.716 0 0 1 7.515-12.89c11.424-11.422 24.24-8.145 26.806-7.33a26.644 26.644 0 0 1 .749 11.1 49.129 49.129 0 0 0 -5.43-6.406 51 51 0 0 0 -4.7-4.164 1 1 0 0 0 -1.229 1.578 49.2 49.2 0 0 1 4.511 4 44.861 44.861 0 0 1 6.3 7.787 27.712 27.712 0 0 1 -7.529 12.918z"/><path d="m51.868 34.524-1.855 1.854-1.425-1.425a1 1 0 1 0 -1.414 1.414l1.426 1.425-2.734 2.735-1.426-1.427a1 1 0 0 0 -1.414 1.414l1.425 1.425-2.735 2.734-1.425-1.423a1 1 0 0 0 -1.414 1.414l1.423 1.425-2.735 2.735-1.422-1.424a1 1 0 0 0 -1.414 1.414l1.424 1.425-1.853 1.853a1 1 0 1 0 1.414 1.414l1.854-1.854 1.315 1.315a1 1 0 0 0 1.417-1.414l-1.315-1.315 2.731-2.738 1.315 1.315a1 1 0 1 0 1.414-1.415l-1.315-1.311 2.735-2.734 1.314 1.314a1 1 0 1 0 1.414-1.414l-1.314-1.314 2.734-2.735 1.315 1.315a1 1 0 0 0 1.414-1.414l-1.315-1.315 1.855-1.854a1 1 0 1 0 -1.414-1.414z"/></svg>